<svg width="30" height="31" viewBox="0 0 30 31" fill="none" xmlns="http://www.w3.org/2000/svg">
<path d="M10 22.0625C8.83333 22.0625 7.84722 21.71 7.04167 21.0052C6.23611 20.3003 5.83333 19.4375 5.83333 18.4166C5.83333 17.3958 6.23611 16.5329 7.04167 15.8281C7.84722 15.1232 8.83333 14.7708 10 14.7708C11.1667 14.7708 12.1528 15.1232 12.9583 15.8281C13.7639 16.5329 14.1667 17.3958 14.1667 18.4166C14.1667 19.4375 13.7639 20.3003 12.9583 21.0052C12.1528 21.71 11.1667 22.0625 10 22.0625ZM3.33333 30.0833C2.41667 30.0833 1.63194 29.7977 0.979167 29.2265C0.326389 28.6553 0 27.9687 0 27.1666V6.74996C0 5.94788 0.326389 5.26124 0.979167 4.69006C1.63194 4.11888 2.41667 3.83329 3.33333 3.83329H5V0.916626H8.33333V3.83329H21.6667V0.916626H25V3.83329H26.6667C27.5833 3.83329 28.3681 4.11888 29.0208 4.69006C29.6736 5.26124 30 5.94788 30 6.74996V27.1666C30 27.9687 29.6736 28.6553 29.0208 29.2265C28.3681 29.7977 27.5833 30.0833 26.6667 30.0833H3.33333ZM3.33333 27.1666H26.6667V12.5833H3.33333V27.1666Z" fill="#5DB79D"/>
</svg>
