<svg width="39" height="37" viewBox="0 0 39 37" fill="none" xmlns="http://www.w3.org/2000/svg">
<rect width="39" height="37" fill="white"/>
<path d="M24.8625 25.7459L27.1375 23.5875L21.125 17.8834V10.7917H17.875V19.1167L24.8625 25.7459ZM19.5 33.9167C17.2521 33.9167 15.1396 33.512 13.1625 32.7026C11.1854 31.8933 9.46562 30.7948 8.00312 29.4073C6.54062 28.0198 5.38281 26.3882 4.52969 24.5125C3.67656 22.6368 3.25 20.6327 3.25 18.5C3.25 16.3674 3.67656 14.3632 4.52969 12.4875C5.38281 10.6118 6.54062 8.98025 8.00312 7.59275C9.46562 6.20525 11.1854 5.10681 13.1625 4.29744C15.1396 3.48806 17.2521 3.08337 19.5 3.08337C21.7479 3.08337 23.8604 3.48806 25.8375 4.29744C27.8146 5.10681 29.5344 6.20525 30.9969 7.59275C32.4594 8.98025 33.6172 10.6118 34.4703 12.4875C35.3234 14.3632 35.75 16.3674 35.75 18.5C35.75 20.6327 35.3234 22.6368 34.4703 24.5125C33.6172 26.3882 32.4594 28.0198 30.9969 29.4073C29.5344 30.7948 27.8146 31.8933 25.8375 32.7026C23.8604 33.512 21.7479 33.9167 19.5 33.9167ZM19.5 30.8334C23.1021 30.8334 26.1693 29.6322 28.7016 27.2297C31.2339 24.8273 32.5 21.9174 32.5 18.5C32.5 15.0827 31.2339 12.1728 28.7016 9.77035C26.1693 7.36792 23.1021 6.16671 19.5 6.16671C15.8979 6.16671 12.8307 7.36792 10.2984 9.77035C7.76615 12.1728 6.5 15.0827 6.5 18.5C6.5 21.9174 7.76615 24.8273 10.2984 27.2297C12.8307 29.6322 15.8979 30.8334 19.5 30.8334Z" fill="#5DB79D"/>
</svg>
