<svg width="40" height="36" viewBox="0 0 40 36" fill="none" xmlns="http://www.w3.org/2000/svg">
<rect width="40" height="35" transform="translate(0 0.564331)" fill="white"/>
<path d="M15 24.6268C13.8333 24.6268 12.8472 24.2744 12.0417 23.5695C11.2361 22.8646 10.8333 22.0018 10.8333 20.981C10.8333 19.9601 11.2361 19.0973 12.0417 18.3924C12.8472 17.6876 13.8333 17.3351 15 17.3351C16.1667 17.3351 17.1528 17.6876 17.9583 18.3924C18.7639 19.0973 19.1667 19.9601 19.1667 20.981C19.1667 22.0018 18.7639 22.8646 17.9583 23.5695C17.1528 24.2744 16.1667 24.6268 15 24.6268ZM8.33333 32.6476C7.41667 32.6476 6.63194 32.362 5.97917 31.7909C5.32639 31.2197 5 30.533 5 29.731V9.31429C5 8.51221 5.32639 7.82557 5.97917 7.25439C6.63194 6.68321 7.41667 6.39762 8.33333 6.39762H10V3.48096H13.3333V6.39762H26.6667V3.48096H30V6.39762H31.6667C32.5833 6.39762 33.3681 6.68321 34.0208 7.25439C34.6736 7.82557 35 8.51221 35 9.31429V29.731C35 30.533 34.6736 31.2197 34.0208 31.7909C33.3681 32.362 32.5833 32.6476 31.6667 32.6476H8.33333ZM8.33333 29.731H31.6667V15.1476H8.33333V29.731Z" fill="#E03D3D"/>
</svg>
