<svg width="101" height="53" viewBox="0 0 101 53" fill="none" xmlns="http://www.w3.org/2000/svg">
<path d="M0.858 13.4193C0.858 11.6166 1.248 10.0133 2.028 8.60929C2.808 7.18796 3.89133 6.08729 5.278 5.30729C6.682 4.50995 8.268 4.11129 10.036 4.11129C12.2027 4.11129 14.0573 4.68329 15.6 5.82729C17.1427 6.97129 18.174 8.53129 18.694 10.5073H13.806C13.442 9.74462 12.922 9.16396 12.246 8.76529C11.5873 8.36662 10.8333 8.16729 9.984 8.16729C8.61467 8.16729 7.50533 8.64396 6.656 9.59729C5.80667 10.5506 5.382 11.8246 5.382 13.4193C5.382 15.014 5.80667 16.288 6.656 17.2413C7.50533 18.1946 8.61467 18.6713 9.984 18.6713C10.8333 18.6713 11.5873 18.472 12.246 18.0733C12.922 17.6746 13.442 17.094 13.806 16.3313H18.694C18.174 18.3073 17.1427 19.8673 15.6 21.0113C14.0573 22.138 12.2027 22.7013 10.036 22.7013C8.268 22.7013 6.682 22.3113 5.278 21.5313C3.89133 20.734 2.808 19.6333 2.028 18.2293C1.248 16.8253 0.858 15.222 0.858 13.4193ZM28.0207 22.7793C26.5994 22.7793 25.3167 22.476 24.1727 21.8693C23.046 21.2626 22.1534 20.396 21.4947 19.2693C20.8534 18.1426 20.5327 16.8253 20.5327 15.3173C20.5327 13.8266 20.862 12.518 21.5207 11.3913C22.1794 10.2473 23.0807 9.37196 24.2247 8.76529C25.3687 8.15862 26.6514 7.85529 28.0727 7.85529C29.494 7.85529 30.7767 8.15862 31.9207 8.76529C33.0647 9.37196 33.966 10.2473 34.6247 11.3913C35.2834 12.518 35.6127 13.8266 35.6127 15.3173C35.6127 16.808 35.2747 18.1253 34.5987 19.2693C33.94 20.396 33.03 21.2626 31.8687 21.8693C30.7247 22.476 29.442 22.7793 28.0207 22.7793ZM28.0207 18.9313C28.87 18.9313 29.5894 18.6193 30.1787 17.9953C30.7854 17.3713 31.0887 16.4786 31.0887 15.3173C31.0887 14.156 30.794 13.2633 30.2047 12.6393C29.6327 12.0153 28.922 11.7033 28.0727 11.7033C27.206 11.7033 26.4867 12.0153 25.9147 12.6393C25.3427 13.246 25.0567 14.1386 25.0567 15.3173C25.0567 16.4786 25.334 17.3713 25.8887 17.9953C26.4607 18.6193 27.1714 18.9313 28.0207 18.9313ZM44.5754 22.7533C43.2407 22.7533 42.0447 22.5366 40.9874 22.1033C39.93 21.67 39.0807 21.0286 38.4394 20.1793C37.8154 19.33 37.486 18.3073 37.4514 17.1113H42.1834C42.2527 17.7873 42.4867 18.3073 42.8854 18.6713C43.284 19.018 43.804 19.1913 44.4454 19.1913C45.104 19.1913 45.624 19.044 46.0054 18.7493C46.3867 18.4373 46.5774 18.0126 46.5774 17.4753C46.5774 17.0246 46.4214 16.652 46.1094 16.3573C45.8147 16.0626 45.442 15.82 44.9914 15.6293C44.558 15.4386 43.934 15.222 43.1194 14.9793C41.9407 14.6153 40.9787 14.2513 40.2334 13.8873C39.488 13.5233 38.8467 12.986 38.3094 12.2753C37.772 11.5646 37.5034 10.6373 37.5034 9.49329C37.5034 7.79462 38.1187 6.46862 39.3494 5.51529C40.58 4.54462 42.1834 4.05929 44.1594 4.05929C46.17 4.05929 47.7907 4.54462 49.0214 5.51529C50.252 6.46862 50.9107 7.80329 50.9974 9.51929H46.1874C46.1527 8.92996 45.936 8.47062 45.5374 8.14129C45.1387 7.79462 44.6274 7.62129 44.0034 7.62129C43.466 7.62129 43.0327 7.76862 42.7034 8.06329C42.374 8.34062 42.2094 8.74795 42.2094 9.28529C42.2094 9.87462 42.4867 10.334 43.0414 10.6633C43.596 10.9926 44.4627 11.348 45.6414 11.7293C46.82 12.128 47.7734 12.5093 48.5014 12.8733C49.2467 13.2373 49.888 13.766 50.4254 14.4593C50.9627 15.1526 51.2314 16.0453 51.2314 17.1373C51.2314 18.1773 50.9627 19.122 50.4254 19.9713C49.9054 20.8206 49.1427 21.4966 48.1374 21.9993C47.132 22.502 45.9447 22.7533 44.5754 22.7533ZM62.0535 18.8013V22.5713H59.7915C58.1795 22.5713 56.9228 22.1813 56.0215 21.4013C55.1201 20.604 54.6695 19.3126 54.6695 17.5273V11.7553H52.9015V8.06329H54.6695V4.52729H59.1155V8.06329H62.0275V11.7553H59.1155V17.5793C59.1155 18.0126 59.2195 18.3246 59.4275 18.5153C59.6355 18.706 59.9821 18.8013 60.4675 18.8013H62.0535ZM63.646 15.2913C63.646 13.8006 63.9233 12.492 64.478 11.3653C65.05 10.2386 65.8213 9.37196 66.792 8.76529C67.7626 8.15862 68.846 7.85529 70.042 7.85529C71.0646 7.85529 71.9573 8.06329 72.72 8.47929C73.5 8.89529 74.098 9.44129 74.514 10.1173V8.06329H78.96V22.5713H74.514V20.5173C74.0806 21.1933 73.474 21.7393 72.694 22.1553C71.9313 22.5713 71.0386 22.7793 70.016 22.7793C68.8373 22.7793 67.7626 22.476 66.792 21.8693C65.8213 21.2453 65.05 20.37 64.478 19.2433C63.9233 18.0993 63.646 16.782 63.646 15.2913ZM74.514 15.3173C74.514 14.208 74.202 13.3326 73.578 12.6913C72.9713 12.05 72.226 11.7293 71.342 11.7293C70.458 11.7293 69.704 12.05 69.08 12.6913C68.4733 13.3153 68.17 14.182 68.17 15.2913C68.17 16.4006 68.4733 17.2846 69.08 17.9433C69.704 18.5846 70.458 18.9053 71.342 18.9053C72.226 18.9053 72.9713 18.5846 73.578 17.9433C74.202 17.302 74.514 16.4266 74.514 15.3173ZM81.2925 15.3173C81.2925 13.8093 81.5958 12.492 82.2025 11.3653C82.8265 10.2386 83.6845 9.37196 84.7765 8.76529C85.8858 8.15862 87.1511 7.85529 88.5725 7.85529C90.3925 7.85529 91.9091 8.33195 93.1225 9.28529C94.3531 10.2386 95.1591 11.582 95.5405 13.3153H90.8085C90.4098 12.206 89.6385 11.6513 88.4945 11.6513C87.6798 11.6513 87.0298 11.972 86.5445 12.6133C86.0591 13.2373 85.8165 14.1386 85.8165 15.3173C85.8165 16.496 86.0591 17.406 86.5445 18.0473C87.0298 18.6713 87.6798 18.9833 88.4945 18.9833C89.6385 18.9833 90.4098 18.4286 90.8085 17.3193H95.5405C95.1591 19.018 94.3531 20.3526 93.1225 21.3233C91.8918 22.294 90.3751 22.7793 88.5725 22.7793C87.1511 22.7793 85.8858 22.476 84.7765 21.8693C83.6845 21.2626 82.8265 20.396 82.2025 19.2693C81.5958 18.1426 81.2925 16.8253 81.2925 15.3173ZM11.544 30.3193V31.3073H3.302V38.9253H10.504V39.9133H3.302V48.5713H2.132V30.3193H11.544ZM15.2476 31.3073C14.9702 31.3073 14.7362 31.2206 14.5456 31.0473C14.3549 30.8566 14.2596 30.6053 14.2596 30.2933C14.2596 29.9986 14.3549 29.756 14.5456 29.5653C14.7362 29.3746 14.9702 29.2793 15.2476 29.2793C15.5249 29.2793 15.7589 29.3746 15.9496 29.5653C16.1402 29.756 16.2356 29.9986 16.2356 30.2933C16.2356 30.6053 16.1402 30.8566 15.9496 31.0473C15.7589 31.2206 15.5249 31.3073 15.2476 31.3073ZM15.8196 34.4533V48.5713H14.6496V34.4533H15.8196ZM26.4786 34.1673C28.1599 34.1673 29.5292 34.6873 30.5866 35.7273C31.6439 36.75 32.1726 38.2753 32.1726 40.3033V48.5713H31.0286V40.3813C31.0286 38.7 30.6039 37.4173 29.7546 36.5333C28.9052 35.632 27.7526 35.1813 26.2966 35.1813C24.7712 35.1813 23.5492 35.6666 22.6306 36.6373C21.7292 37.608 21.2786 39.0466 21.2786 40.9533V48.5713H20.1086V34.4533H21.2786V37.4433C21.6772 36.386 22.3359 35.58 23.2546 35.0253C24.1906 34.4533 25.2652 34.1673 26.4786 34.1673ZM35.5798 41.4993C35.5798 40.0433 35.8658 38.7693 36.4378 37.6773C37.0271 36.5853 37.8331 35.7446 38.8558 35.1553C39.8958 34.566 41.0744 34.2713 42.3918 34.2713C43.8824 34.2713 45.1478 34.6353 46.1878 35.3633C47.2278 36.0913 47.9558 37.0186 48.3718 38.1453V34.4533H49.5418V48.5713H48.3718V44.8533C47.9558 45.9973 47.2191 46.942 46.1618 47.6873C45.1218 48.4153 43.8651 48.7793 42.3918 48.7793C41.0744 48.7793 39.8958 48.4846 38.8558 47.8953C37.8331 47.2886 37.0271 46.4393 36.4378 45.3473C35.8658 44.238 35.5798 42.9553 35.5798 41.4993ZM48.3718 41.4993C48.3718 40.2686 48.1118 39.1853 47.5918 38.2493C47.0891 37.296 46.3958 36.568 45.5118 36.0653C44.6278 35.5453 43.6398 35.2853 42.5478 35.2853C41.4038 35.2853 40.3984 35.5366 39.5318 36.0393C38.6651 36.5246 37.9891 37.2353 37.5038 38.1713C37.0184 39.1073 36.7758 40.2166 36.7758 41.4993C36.7758 42.782 37.0184 43.8913 37.5038 44.8273C37.9891 45.7633 38.6651 46.4826 39.5318 46.9853C40.4158 47.488 41.4211 47.7393 42.5478 47.7393C43.6398 47.7393 44.6278 47.488 45.5118 46.9853C46.4131 46.4653 47.1151 45.7373 47.6178 44.8013C48.1204 43.848 48.3718 42.7473 48.3718 41.4993ZM60.1719 34.1673C61.8533 34.1673 63.2226 34.6873 64.2799 35.7273C65.3373 36.75 65.8659 38.2753 65.8659 40.3033V48.5713H64.7219V40.3813C64.7219 38.7 64.2973 37.4173 63.4479 36.5333C62.5986 35.632 61.4459 35.1813 59.9899 35.1813C58.4646 35.1813 57.2426 35.6666 56.3239 36.6373C55.4226 37.608 54.9719 39.0466 54.9719 40.9533V48.5713H53.8019V34.4533H54.9719V37.4433C55.3706 36.386 56.0293 35.58 56.9479 35.0253C57.8839 34.4533 58.9586 34.1673 60.1719 34.1673ZM69.2731 41.4993C69.2731 40.026 69.5591 38.7433 70.1311 37.6513C70.7205 36.5593 71.5265 35.7273 72.5491 35.1553C73.5891 34.566 74.7765 34.2713 76.1111 34.2713C77.8791 34.2713 79.3265 34.7133 80.4531 35.5973C81.5971 36.4813 82.3078 37.6686 82.5851 39.1593H81.3631C81.1378 37.946 80.5485 36.9926 79.5951 36.2993C78.6591 35.606 77.4978 35.2593 76.1111 35.2593C75.0711 35.2593 74.1265 35.4933 73.2771 35.9613C72.4278 36.412 71.7431 37.114 71.2231 38.0673C70.7205 39.0033 70.4691 40.1473 70.4691 41.4993C70.4691 42.8686 70.7205 44.0213 71.2231 44.9573C71.7431 45.8933 72.4278 46.5953 73.2771 47.0633C74.1265 47.5313 75.0711 47.7653 76.1111 47.7653C77.4978 47.7653 78.6591 47.4186 79.5951 46.7253C80.5485 46.032 81.1378 45.0786 81.3631 43.8653H82.5851C82.3078 45.3386 81.5971 46.526 80.4531 47.4273C79.3091 48.3286 77.8618 48.7793 76.1111 48.7793C74.7765 48.7793 73.5891 48.4846 72.5491 47.8953C71.5265 47.306 70.7205 46.4653 70.1311 45.3733C69.5591 44.264 69.2731 42.9726 69.2731 41.4993ZM98.8636 40.5633C98.8636 41.1873 98.8462 41.6553 98.8116 41.9673H86.6176C86.6522 43.2326 86.9296 44.2986 87.4496 45.1653C87.9696 46.032 88.6542 46.682 89.5036 47.1153C90.3529 47.5486 91.2802 47.7653 92.2856 47.7653C93.6722 47.7653 94.8336 47.4273 95.7696 46.7513C96.7056 46.058 97.2949 45.122 97.5376 43.9433H98.7596C98.4822 45.382 97.7716 46.552 96.6276 47.4533C95.4836 48.3373 94.0362 48.7793 92.2856 48.7793C90.9682 48.7793 89.7896 48.4846 88.7496 47.8953C87.7096 47.306 86.8949 46.4653 86.3056 45.3733C85.7162 44.264 85.4216 42.9726 85.4216 41.4993C85.4216 40.026 85.7076 38.7433 86.2796 37.6513C86.8689 36.5593 87.6836 35.7273 88.7236 35.1553C89.7636 34.566 90.9509 34.2713 92.2856 34.2713C93.6376 34.2713 94.8076 34.566 95.7956 35.1553C96.8009 35.7273 97.5636 36.4986 98.0836 37.4693C98.6036 38.4226 98.8636 39.454 98.8636 40.5633ZM97.6936 41.0053C97.7456 39.7573 97.5202 38.7 97.0176 37.8333C96.5322 36.9666 95.8649 36.3253 95.0156 35.9093C94.1662 35.476 93.2476 35.2593 92.2596 35.2593C91.2716 35.2593 90.3529 35.476 89.5036 35.9093C88.6716 36.3253 87.9869 36.9666 87.4496 37.8333C86.9296 38.7 86.6522 39.7573 86.6176 41.0053H97.6936Z" fill="#2B3674"/>
</svg>
