<svg width="80" height="80" viewBox="0 0 80 80" fill="none" xmlns="http://www.w3.org/2000/svg">
<g clip-path="url(#clip0_101_9133)">
<path d="M33.3334 53.3334H46.6667C48.5001 53.3334 50.0001 51.8334 50.0001 50.0001V33.3334H55.3001C58.2667 33.3334 59.7667 29.7334 57.6667 27.6334L42.3667 12.3334C41.0667 11.0334 38.9667 11.0334 37.6667 12.3334L22.3667 27.6334C20.2667 29.7334 21.7334 33.3334 24.7001 33.3334H30.0001V50.0001C30.0001 51.8334 31.5001 53.3334 33.3334 53.3334ZM20.0001 60.0001H60.0001C61.8334 60.0001 63.3334 61.5001 63.3334 63.3334C63.3334 65.1667 61.8334 66.6667 60.0001 66.6667H20.0001C18.1667 66.6667 16.6667 65.1667 16.6667 63.3334C16.6667 61.5001 18.1667 60.0001 20.0001 60.0001Z" fill="#1C223F"/>
</g>
<defs>
<clipPath id="clip0_101_9133">
<rect width="80" height="80" fill="white"/>
</clipPath>
</defs>
</svg>
